<?xml version="1.0" encoding="UTF-8" standalone="no"?>
<!DOCTYPE svg PUBLIC "-//W3C//DTD SVG 1.0//EN" "http://www.w3.org/TR/2001/PR-SVG-20010719/DTD/svg10.dtd">
<svg width="44cm" height="17cm" viewBox="140 178 880 322" xmlns="http://www.w3.org/2000/svg" xmlns:xlink="http://www.w3.org/1999/xlink">
  <g>
    <rect style="fill: #ffc0c0" x="140" y="240" width="220" height="260"/>
    <rect style="fill: none; fill-opacity:0; stroke-width: 2.35099e-37; stroke: #ffc0c0" x="140" y="240" width="220" height="260"/>
  </g>
  <text font-size="13.5467" style="fill: #000000;text-anchor:start;font-family:sans-serif;font-style:normal;font-weight:700" x="160" y="272.6">
    <tspan x="160" y="272.6">NO SUPERJOB</tspan>
  </text>
  <g>
    <rect style="fill: #bfbfff" x="360" y="360" width="660" height="140"/>
    <rect style="fill: none; fill-opacity:0; stroke-width: 2.35099e-37; stroke: #bfbfff" x="360" y="360" width="660" height="140"/>
  </g>
  <g>
    <rect style="fill: #ffffff" x="400" y="180" width="140" height="40"/>
    <rect style="fill: none; fill-opacity:0; stroke-width: 2; stroke: #000000" x="400" y="180" width="140" height="40"/>
    <text font-size="12.4178" style="fill: #000000;text-anchor:middle;font-family:sans-serif;font-style:normal;font-weight:normal" x="470" y="203.789">
      <tspan x="470" y="203.789">CANCELLED</tspan>
    </text>
  </g>
  <g>
    <path style="fill: #ffffff" d="M 423.333 300 L 516.667,300 C 529.553,300 540,308.954 540,320 C 540,331.046 529.553,340 516.667,340 L 423.333,340 C 410.447,340 400,331.046 400,320 C 400,308.954 410.447,300 423.333,300z"/>
    <path style="fill: none; fill-opacity:0; stroke-width: 2; stroke: #000000" d="M 423.333 300 L 516.667,300 C 529.553,300 540,308.954 540,320 C 540,331.046 529.553,340 516.667,340 L 423.333,340 C 410.447,340 400,331.046 400,320 C 400,308.954 410.447,300 423.333,300"/>
    <text font-size="12.4178" style="fill: #000000;text-anchor:middle;font-family:sans-serif;font-style:normal;font-weight:normal" x="470" y="323.881">
      <tspan x="470" y="323.881">QUEUED</tspan>
    </text>
  </g>
  <g>
    <path style="fill: #ffffff" d="M 643.333 300 L 736.667,300 C 749.553,300 760,308.954 760,320 C 760,331.046 749.553,340 736.667,340 L 643.333,340 C 630.447,340 620,331.046 620,320 C 620,308.954 630.447,300 643.333,300z"/>
    <path style="fill: none; fill-opacity:0; stroke-width: 2; stroke: #000000" d="M 643.333 300 L 736.667,300 C 749.553,300 760,308.954 760,320 C 760,331.046 749.553,340 736.667,340 L 643.333,340 C 630.447,340 620,331.046 620,320 C 620,308.954 630.447,300 643.333,300"/>
    <text font-size="12.4178" style="fill: #000000;text-anchor:middle;font-family:sans-serif;font-style:normal;font-weight:normal" x="690" y="323.881">
      <tspan x="690" y="323.881">PROCESSING</tspan>
    </text>
  </g>
  <g>
    <rect style="fill: #ffffff" x="400" y="420" width="140" height="40"/>
    <rect style="fill: none; fill-opacity:0; stroke-width: 2; stroke: #000000" x="400" y="420" width="140" height="40"/>
    <text font-size="12.4178" style="fill: #000000;text-anchor:middle;font-family:sans-serif;font-style:normal;font-weight:normal" x="470" y="443.789">
      <tspan x="470" y="443.789">FAILED</tspan>
    </text>
  </g>
  <g>
    <rect style="fill: #ffffff" x="840" y="300" width="140" height="40"/>
    <rect style="fill: none; fill-opacity:0; stroke-width: 2; stroke: #000000" x="840" y="300" width="140" height="40"/>
    <text font-size="12.4178" style="fill: #000000;text-anchor:middle;font-family:sans-serif;font-style:normal;font-weight:normal" x="910" y="323.789">
      <tspan x="910" y="323.789">DONE</tspan>
    </text>
  </g>
  <g>
    <path style="fill: #ffffff" d="M 643.333 180 L 736.667,180 C 749.553,180 760,188.954 760,200 C 760,211.046 749.553,220 736.667,220 L 643.333,220 C 630.447,220 620,211.046 620,200 C 620,188.954 630.447,180 643.333,180z"/>
    <path style="fill: none; fill-opacity:0; stroke-width: 2; stroke: #000000" d="M 643.333 180 L 736.667,180 C 749.553,180 760,188.954 760,200 C 760,211.046 749.553,220 736.667,220 L 643.333,220 C 630.447,220 620,211.046 620,200 C 620,188.954 630.447,180 643.333,180"/>
    <text font-size="12.4178" style="fill: #000000;text-anchor:middle;font-family:sans-serif;font-style:normal;font-weight:normal" x="690" y="203.881">
      <tspan x="690" y="203.881">CANCELLING</tspan>
    </text>
  </g>
  <g>
    <line style="fill: none; fill-opacity:0; stroke-width: 4; stroke: #000000" x1="539.999" y1="320" x2="608.029" y2="320"/>
    <polygon style="fill: #000000" points="615.529,320 605.529,325 608.029,320 605.529,315 "/>
    <polygon style="fill: none; fill-opacity:0; stroke-width: 4; stroke: #000000" points="615.529,320 605.529,325 608.029,320 605.529,315 "/>
  </g>
  <g>
    <line style="fill: none; fill-opacity:0; stroke-width: 4; stroke-dasharray: 8; stroke: #000000" x1="470" y1="220.991" x2="470" y2="287.037"/>
    <polygon style="fill: #000000" points="470,294.537 465,284.537 470,287.037 475,284.537 "/>
    <polygon style="fill: none; fill-opacity:0; stroke-width: 4; stroke: #000000" points="470,294.537 465,284.537 470,287.037 475,284.537 "/>
  </g>
  <g>
    <line style="fill: none; fill-opacity:0; stroke-width: 4; stroke-dasharray: 8; stroke: #000000" x1="690" y1="299.009" x2="690" y2="232.963"/>
    <polygon style="fill: #000000" points="690,225.463 695,235.463 690,232.963 685,235.463 "/>
    <polygon style="fill: none; fill-opacity:0; stroke-width: 4; stroke: #000000" points="690,225.463 695,235.463 690,232.963 685,235.463 "/>
  </g>
  <g>
    <line style="fill: none; fill-opacity:0; stroke-width: 4; stroke: #000000" x1="759.999" y1="320" x2="827.076" y2="320"/>
    <polygon style="fill: #000000" points="834.576,320 824.576,325 827.076,320 824.576,315 "/>
    <polygon style="fill: none; fill-opacity:0; stroke-width: 4; stroke: #000000" points="834.576,320 824.576,325 827.076,320 824.576,315 "/>
  </g>
  <g>
    <path style="fill: #ffffff" d="M 200 300 L 300,300 L 320,320 L 300,340 L 200,340 L 180,320 L 200,300z"/>
    <path style="fill: none; fill-opacity:0; stroke-width: 2; stroke: #000000" d="M 200 300 L 300,300 L 320,320 L 300,340 L 200,340 L 180,320 L 200,300"/>
    <text font-size="12.4178" style="fill: #000000;text-anchor:middle;font-family:sans-serif;font-style:normal;font-weight:normal" x="250" y="323.881">
      <tspan x="250" y="323.881">STASHED</tspan>
    </text>
  </g>
  <g>
    <path style="fill: none; fill-opacity:0; stroke-width: 4; stroke-dasharray: 8; stroke: #000000" d="M 409.12,302.96 A 260,260 0 0 0 320.433,304.768"/>
    <polygon style="fill: #000000" points="313.092,306.265 321.633,299.05 320.381,304.498 323.989,308.768 "/>
    <polygon style="fill: none; fill-opacity:0; stroke-width: 4; stroke: #000000" points="313.092,306.265 321.633,299.05 320.381,304.498 323.989,308.768 "/>
  </g>
  <g>
    <path style="fill: none; fill-opacity:0; stroke-width: 4; stroke-dasharray: 8; stroke: #000000" d="M 308.746,332.681 A 260,260 0 0 0 397.255,338.568"/>
    <polygon style="fill: #000000" points="404.699,337.713 395.565,344.161 397.284,338.841 394.06,334.275 "/>
    <polygon style="fill: none; fill-opacity:0; stroke-width: 4; stroke: #000000" points="404.699,337.713 395.565,344.161 397.284,338.841 394.06,334.275 "/>
  </g>
  <g>
    <rect style="fill: #ffffff" x="180" y="420" width="140" height="40"/>
    <rect style="fill: none; fill-opacity:0; stroke-width: 2; stroke: #ffffff" x="180" y="420" width="140" height="40"/>
    <text font-size="12.4178" style="fill: #000000;text-anchor:middle;font-family:sans-serif;font-style:normal;font-weight:normal" x="250" y="443.789">
      <tspan x="250" y="443.789">DELETED</tspan>
    </text>
  </g>
  <g>
    <line style="fill: none; fill-opacity:0; stroke-width: 4; stroke-dasharray: 8; stroke: #000000" x1="250" y1="340" x2="250" y2="407.026"/>
    <polygon style="fill: #000000" points="250,414.526 245,404.526 250,407.026 255,404.526 "/>
    <polygon style="fill: none; fill-opacity:0; stroke-width: 4; stroke: #000000" points="250,414.526 245,404.526 250,407.026 255,404.526 "/>
  </g>
  <g>
    <path style="fill: #ffffff" d="M 643.333 420 L 736.667,420 C 749.553,420 760,428.954 760,440 C 760,451.046 749.553,460 736.667,460 L 643.333,460 C 630.447,460 620,451.046 620,440 C 620,428.954 630.447,420 643.333,420z"/>
    <path style="fill: none; fill-opacity:0; stroke-width: 2; stroke: #000000" d="M 643.333 420 L 736.667,420 C 749.553,420 760,428.954 760,440 C 760,451.046 749.553,460 736.667,460 L 643.333,460 C 630.447,460 620,451.046 620,440 C 620,428.954 630.447,420 643.333,420"/>
    <text font-size="12.4178" style="fill: #000000;text-anchor:middle;font-family:sans-serif;font-style:normal;font-weight:normal" x="690" y="443.881">
      <tspan x="690" y="443.881">FAILING</tspan>
    </text>
  </g>
  <g>
    <path style="fill: #ffffff" d="M 863.333 420 L 956.667,420 C 969.553,420 980,428.954 980,440 C 980,451.046 969.553,460 956.667,460 L 863.333,460 C 850.447,460 840,451.046 840,440 C 840,428.954 850.447,420 863.333,420z"/>
    <path style="fill: none; fill-opacity:0; stroke-width: 2; stroke: #000000" d="M 863.333 420 L 956.667,420 C 969.553,420 980,428.954 980,440 C 980,451.046 969.553,460 956.667,460 L 863.333,460 C 850.447,460 840,451.046 840,440 C 840,428.954 850.447,420 863.333,420"/>
    <text font-size="12.4178" style="fill: #000000;text-anchor:middle;font-family:sans-serif;font-style:normal;font-weight:normal" x="910" y="443.881">
      <tspan x="910" y="443.881">CANCELLING</tspan>
    </text>
  </g>
  <g>
    <line style="fill: none; fill-opacity:0; stroke-width: 4; stroke-dasharray: 8; stroke: #000000" x1="759.999" y1="440" x2="828.029" y2="440"/>
    <polygon style="fill: #000000" points="835.529,440 825.529,445 828.029,440 825.529,435 "/>
    <polygon style="fill: none; fill-opacity:0; stroke-width: 4; stroke: #000000" points="835.529,440 825.529,445 828.029,440 825.529,435 "/>
  </g>
  <g>
    <line style="fill: none; fill-opacity:0; stroke-width: 4; stroke: #000000" x1="690" y1="340.991" x2="690" y2="407.037"/>
    <polygon style="fill: #000000" points="690,414.537 685,404.537 690,407.037 695,404.537 "/>
    <polygon style="fill: none; fill-opacity:0; stroke-width: 4; stroke: #000000" points="690,414.537 685,404.537 690,407.037 695,404.537 "/>
  </g>
  <g>
    <line style="fill: none; fill-opacity:0; stroke-width: 4; stroke: #000000" x1="620.001" y1="440" x2="552.924" y2="440"/>
    <polygon style="fill: #000000" points="545.424,440 555.424,435 552.924,440 555.424,445 "/>
    <polygon style="fill: none; fill-opacity:0; stroke-width: 4; stroke: #000000" points="545.424,440 555.424,435 552.924,440 555.424,445 "/>
  </g>
  <g>
    <line style="fill: none; fill-opacity:0; stroke-width: 4; stroke-dasharray: 8; stroke: #000000" x1="470" y1="352.963" x2="470" y2="419.009"/>
    <polygon style="fill: #000000" points="470,345.463 475,355.463 470,352.963 465,355.463 "/>
    <polygon style="fill: none; fill-opacity:0; stroke-width: 4; stroke: #000000" points="470,345.463 475,355.463 470,352.963 465,355.463 "/>
  </g>
  <text font-size="13.5467" style="fill: #000000;text-anchor:end;font-family:sans-serif;font-style:normal;font-weight:700" x="1000" y="392.6">
    <tspan x="1000" y="392.6">HAS SUBJOBS</tspan>
  </text>
  <g>
    <path style="fill: none; fill-opacity:0; stroke-width: 4; stroke: #000000" d="M 546.673,463.923 A 611.239,611.239 0 0 0 852.775,458.892"/>
    <polygon style="fill: #000000" points="539.39,462.136 550.331,459.834 546.645,464.037 547.796,469.507 "/>
    <polygon style="fill: none; fill-opacity:0; stroke-width: 4; stroke: #000000" points="539.39,462.136 550.331,459.834 546.645,464.037 547.796,469.507 "/>
  </g>
  <g>
    <line style="fill: none; fill-opacity:0; stroke-width: 4; stroke: #000000" x1="620.001" y1="200" x2="552.924" y2="200"/>
    <polygon style="fill: #000000" points="545.424,200 555.424,195 552.924,200 555.424,205 "/>
    <polygon style="fill: none; fill-opacity:0; stroke-width: 4; stroke: #000000" points="545.424,200 555.424,195 552.924,200 555.424,205 "/>
  </g>
</svg>
