<?xml version="1.0" encoding="UTF-8" standalone="no"?>
<!DOCTYPE svg PUBLIC "-//W3C//DTD SVG 1.0//EN" "http://www.w3.org/TR/2001/PR-SVG-20010719/DTD/svg10.dtd">
<svg width="44cm" height="25cm" viewBox="140 100 880 482" xmlns="http://www.w3.org/2000/svg" xmlns:xlink="http://www.w3.org/1999/xlink">
  <g>
    <rect style="fill: #bfbfff" x="580" y="100" width="220" height="160"/>
    <rect style="fill: none; fill-opacity:0; stroke-width: 2.35099e-37; stroke: #bfbfff" x="580" y="100" width="220" height="160"/>
  </g>
  <g>
    <rect style="fill: #bfbfff" x="360" y="380" width="660" height="120"/>
    <rect style="fill: none; fill-opacity:0; stroke-width: 2.35099e-37; stroke: #bfbfff" x="360" y="380" width="660" height="120"/>
  </g>
  <g>
    <rect style="fill: #ffc0c0" x="140" y="140" width="220" height="360"/>
    <rect style="fill: none; fill-opacity:0; stroke-width: 2.35099e-37; stroke: #ffc0c0" x="140" y="140" width="220" height="360"/>
  </g>
  <g>
    <rect style="fill: #ffffff" x="400" y="180" width="140" height="40"/>
    <rect style="fill: none; fill-opacity:0; stroke-width: 2; stroke: #000000" x="400" y="180" width="140" height="40"/>
    <text font-size="12.4178" style="fill: #000000;text-anchor:middle;font-family:sans-serif;font-style:normal;font-weight:normal" x="470" y="203.789">
      <tspan x="470" y="203.789">CANCELLED</tspan>
    </text>
  </g>
  <g>
    <path style="fill: #ffffff" d="M 423.333 300 L 516.667,300 C 529.553,300 540,308.954 540,320 C 540,331.046 529.553,340 516.667,340 L 423.333,340 C 410.447,340 400,331.046 400,320 C 400,308.954 410.447,300 423.333,300z"/>
    <path style="fill: none; fill-opacity:0; stroke-width: 2; stroke: #000000" d="M 423.333 300 L 516.667,300 C 529.553,300 540,308.954 540,320 C 540,331.046 529.553,340 516.667,340 L 423.333,340 C 410.447,340 400,331.046 400,320 C 400,308.954 410.447,300 423.333,300"/>
    <text font-size="12.4178" style="fill: #000000;text-anchor:middle;font-family:sans-serif;font-style:normal;font-weight:normal" x="470" y="323.881">
      <tspan x="470" y="323.881">QUEUED</tspan>
    </text>
  </g>
  <g>
    <path style="fill: #ffffff" d="M 643.333 300 L 736.667,300 C 749.553,300 760,308.954 760,320 C 760,331.046 749.553,340 736.667,340 L 643.333,340 C 630.447,340 620,331.046 620,320 C 620,308.954 630.447,300 643.333,300z"/>
    <path style="fill: none; fill-opacity:0; stroke-width: 2; stroke: #000000" d="M 643.333 300 L 736.667,300 C 749.553,300 760,308.954 760,320 C 760,331.046 749.553,340 736.667,340 L 643.333,340 C 630.447,340 620,331.046 620,320 C 620,308.954 630.447,300 643.333,300"/>
    <text font-size="12.4178" style="fill: #000000;text-anchor:middle;font-family:sans-serif;font-style:normal;font-weight:normal" x="690" y="323.881">
      <tspan x="690" y="323.881">PROCESSING</tspan>
    </text>
  </g>
  <g>
    <rect style="fill: #ffffff" x="620" y="540" width="140" height="40"/>
    <rect style="fill: none; fill-opacity:0; stroke-width: 2; stroke: #000000" x="620" y="540" width="140" height="40"/>
    <text font-size="12.4178" style="fill: #000000;text-anchor:middle;font-family:sans-serif;font-style:normal;font-weight:normal" x="690" y="563.789">
      <tspan x="690" y="563.789">FAILED</tspan>
    </text>
  </g>
  <g>
    <rect style="fill: #ffffff" x="840" y="300" width="140" height="40"/>
    <rect style="fill: none; fill-opacity:0; stroke-width: 2; stroke: #000000" x="840" y="300" width="140" height="40"/>
    <text font-size="12.4178" style="fill: #000000;text-anchor:middle;font-family:sans-serif;font-style:normal;font-weight:normal" x="910" y="323.789">
      <tspan x="910" y="323.789">DONE</tspan>
    </text>
  </g>
  <g>
    <path style="fill: #ffffff" d="M 863.333 180 L 956.667,180 C 969.553,180 980,188.954 980,200 C 980,211.046 969.553,220 956.667,220 L 863.333,220 C 850.447,220 840,211.046 840,200 C 840,188.954 850.447,180 863.333,180z"/>
    <path style="fill: none; fill-opacity:0; stroke-width: 2; stroke: #000000" d="M 863.333 180 L 956.667,180 C 969.553,180 980,188.954 980,200 C 980,211.046 969.553,220 956.667,220 L 863.333,220 C 850.447,220 840,211.046 840,200 C 840,188.954 850.447,180 863.333,180"/>
    <text font-size="12.4178" style="fill: #000000;text-anchor:middle;font-family:sans-serif;font-style:normal;font-weight:normal" x="910" y="203.881">
      <tspan x="910" y="203.881">CANCELLING</tspan>
    </text>
  </g>
  <g>
    <line style="fill: none; fill-opacity:0; stroke-width: 4; stroke: #000000" x1="539.999" y1="320" x2="608.029" y2="320"/>
    <polygon style="fill: #000000" points="615.529,320 605.529,325 608.029,320 605.529,315 "/>
    <polygon style="fill: none; fill-opacity:0; stroke-width: 4; stroke: #000000" points="615.529,320 605.529,325 608.029,320 605.529,315 "/>
  </g>
  <g>
    <line style="fill: none; fill-opacity:0; stroke-width: 4; stroke-dasharray: 8; stroke: #000000" x1="470" y1="220.991" x2="470" y2="287.037"/>
    <polygon style="fill: #000000" points="470,294.537 465,284.537 470,287.037 475,284.537 "/>
    <polygon style="fill: none; fill-opacity:0; stroke-width: 4; stroke: #000000" points="470,294.537 465,284.537 470,287.037 475,284.537 "/>
  </g>
  <g>
    <line style="fill: none; fill-opacity:0; stroke-width: 4; stroke-dasharray: 8; stroke: #000000" x1="728.484" y1="299.009" x2="861.006" y2="226.724"/>
    <polygon style="fill: #000000" points="867.59,223.133 861.205,232.311 861.006,226.724 856.417,223.532 "/>
    <polygon style="fill: none; fill-opacity:0; stroke-width: 4; stroke: #000000" points="867.59,223.133 861.205,232.311 861.006,226.724 856.417,223.532 "/>
  </g>
  <g>
    <line style="fill: none; fill-opacity:0; stroke-width: 4; stroke: #000000" x1="759.999" y1="320" x2="827.076" y2="320"/>
    <polygon style="fill: #000000" points="834.576,320 824.576,325 827.076,320 824.576,315 "/>
    <polygon style="fill: none; fill-opacity:0; stroke-width: 4; stroke: #000000" points="834.576,320 824.576,325 827.076,320 824.576,315 "/>
  </g>
  <g>
    <path style="fill: #ffffff" d="M 200 300 L 300,300 L 320,320 L 300,340 L 200,340 L 180,320 L 200,300z"/>
    <path style="fill: none; fill-opacity:0; stroke-width: 2; stroke: #000000" d="M 200 300 L 300,300 L 320,320 L 300,340 L 200,340 L 180,320 L 200,300"/>
    <text font-size="12.4178" style="fill: #000000;text-anchor:middle;font-family:sans-serif;font-style:normal;font-weight:normal" x="250" y="323.881">
      <tspan x="250" y="323.881">STASHED</tspan>
    </text>
  </g>
  <g>
    <path style="fill: none; fill-opacity:0; stroke-width: 4; stroke-dasharray: 8; stroke: #000000" d="M 409.12,302.96 A 260,260 0 0 0 320.433,304.768"/>
    <polygon style="fill: #000000" points="313.092,306.265 321.633,299.05 320.381,304.498 323.989,308.768 "/>
    <polygon style="fill: none; fill-opacity:0; stroke-width: 4; stroke: #000000" points="313.092,306.265 321.633,299.05 320.381,304.498 323.989,308.768 "/>
  </g>
  <g>
    <path style="fill: none; fill-opacity:0; stroke-width: 4; stroke-dasharray: 8; stroke: #000000" d="M 308.746,332.681 A 260,260 0 0 0 397.255,338.568"/>
    <polygon style="fill: #000000" points="404.699,337.713 395.565,344.161 397.284,338.841 394.06,334.275 "/>
    <polygon style="fill: none; fill-opacity:0; stroke-width: 4; stroke: #000000" points="404.699,337.713 395.565,344.161 397.284,338.841 394.06,334.275 "/>
  </g>
  <g>
    <rect style="fill: #ffffff" x="180" y="420" width="140" height="40"/>
    <rect style="fill: none; fill-opacity:0; stroke-width: 2; stroke: #ffffff" x="180" y="420" width="140" height="40"/>
    <text font-size="12.4178" style="fill: #000000;text-anchor:middle;font-family:sans-serif;font-style:normal;font-weight:normal" x="250" y="443.789">
      <tspan x="250" y="443.789">DELETED</tspan>
    </text>
  </g>
  <g>
    <line style="fill: none; fill-opacity:0; stroke-width: 4; stroke-dasharray: 8; stroke: #000000" x1="250" y1="340" x2="250" y2="407.026"/>
    <polygon style="fill: #000000" points="250,414.526 245,404.526 250,407.026 255,404.526 "/>
    <polygon style="fill: none; fill-opacity:0; stroke-width: 4; stroke: #000000" points="250,414.526 245,404.526 250,407.026 255,404.526 "/>
  </g>
  <g>
    <rect style="fill: #ffffff" x="400" y="420" width="140" height="40"/>
    <rect style="fill: none; fill-opacity:0; stroke-width: 2; stroke: #000000" x="400" y="420" width="140" height="40"/>
    <text font-size="12.4178" style="fill: #000000;text-anchor:middle;font-family:sans-serif;font-style:normal;font-weight:normal" x="470" y="443.789">
      <tspan x="470" y="443.789">PROLOG_FAIL</tspan>
    </text>
  </g>
  <g>
    <rect style="fill: #ffffff" x="620" y="180" width="140" height="40"/>
    <rect style="fill: none; fill-opacity:0; stroke-width: 2; stroke: #000000" x="620" y="180" width="140" height="40"/>
    <text font-size="12.4178" style="fill: #000000;text-anchor:middle;font-family:sans-serif;font-style:normal;font-weight:normal" x="690" y="203.789">
      <tspan x="690" y="203.789">EPILOG_FAIL</tspan>
    </text>
  </g>
  <g>
    <path style="fill: none; fill-opacity:0; stroke-width: 4; stroke: #000000" d="M 457.924,340.987 A 100,100 0 0 0 453.939,407.791"/>
    <polygon style="fill: #000000" points="456.179,414.895 447.674,407.638 453.253,407.99 456.882,403.737 "/>
    <polygon style="fill: none; fill-opacity:0; stroke-width: 4; stroke: #000000" points="456.179,414.895 447.674,407.638 453.253,407.99 456.882,403.737 "/>
  </g>
  <g>
    <path style="fill: none; fill-opacity:0; stroke-width: 4; stroke-dasharray: 8; stroke: #000000" d="M 482.076,419.013 A 100,100 0 0 0 486.061,352.209"/>
    <polygon style="fill: #000000" points="483.821,345.105 492.326,352.362 486.747,352.01 483.118,356.263 "/>
    <polygon style="fill: none; fill-opacity:0; stroke-width: 4; stroke: #000000" points="483.821,345.105 492.326,352.362 486.747,352.01 483.118,356.263 "/>
  </g>
  <g>
    <path style="fill: #ffffff" d="M 643.333 420 L 736.667,420 C 749.553,420 760,428.954 760,440 C 760,451.046 749.553,460 736.667,460 L 643.333,460 C 630.447,460 620,451.046 620,440 C 620,428.954 630.447,420 643.333,420z"/>
    <path style="fill: none; fill-opacity:0; stroke-width: 2; stroke: #000000" d="M 643.333 420 L 736.667,420 C 749.553,420 760,428.954 760,440 C 760,451.046 749.553,460 736.667,460 L 643.333,460 C 630.447,460 620,451.046 620,440 C 620,428.954 630.447,420 643.333,420"/>
    <text font-size="12.4178" style="fill: #000000;text-anchor:middle;font-family:sans-serif;font-style:normal;font-weight:normal" x="690" y="443.881">
      <tspan x="690" y="443.881">FAILING</tspan>
    </text>
  </g>
  <g>
    <path style="fill: #ffffff" d="M 863.333 420 L 956.667,420 C 969.553,420 980,428.954 980,440 C 980,451.046 969.553,460 956.667,460 L 863.333,460 C 850.447,460 840,451.046 840,440 C 840,428.954 850.447,420 863.333,420z"/>
    <path style="fill: none; fill-opacity:0; stroke-width: 2; stroke: #000000" d="M 863.333 420 L 956.667,420 C 969.553,420 980,428.954 980,440 C 980,451.046 969.553,460 956.667,460 L 863.333,460 C 850.447,460 840,451.046 840,440 C 840,428.954 850.447,420 863.333,420"/>
    <text font-size="12.4178" style="fill: #000000;text-anchor:middle;font-family:sans-serif;font-style:normal;font-weight:normal" x="910" y="443.881">
      <tspan x="910" y="443.881">CANCELLING</tspan>
    </text>
  </g>
  <g>
    <line style="fill: none; fill-opacity:0; stroke-width: 4; stroke-dasharray: 8; stroke: #000000" x1="759.999" y1="440" x2="828.029" y2="440"/>
    <polygon style="fill: #000000" points="835.529,440 825.529,445 828.029,440 825.529,435 "/>
    <polygon style="fill: none; fill-opacity:0; stroke-width: 4; stroke: #000000" points="835.529,440 825.529,445 828.029,440 825.529,435 "/>
  </g>
  <g>
    <line style="fill: none; fill-opacity:0; stroke-width: 4; stroke: #000000" x1="690" y1="340.991" x2="690" y2="407.037"/>
    <polygon style="fill: #000000" points="690,414.537 685,404.537 690,407.037 695,404.537 "/>
    <polygon style="fill: none; fill-opacity:0; stroke-width: 4; stroke: #000000" points="690,414.537 685,404.537 690,407.037 695,404.537 "/>
  </g>
  <g>
    <line style="fill: none; fill-opacity:0; stroke-width: 4; stroke: #000000" x1="690" y1="460.991" x2="690" y2="527.037"/>
    <polygon style="fill: #000000" points="690,534.537 685,524.537 690,527.037 695,524.537 "/>
    <polygon style="fill: none; fill-opacity:0; stroke-width: 4; stroke: #000000" points="690,534.537 685,524.537 690,527.037 695,524.537 "/>
  </g>
  <text font-size="13.5467" style="fill: #000000;text-anchor:start;font-family:sans-serif;font-style:normal;font-weight:700" x="160" y="172.6">
    <tspan x="160" y="172.6">NO SUPERJOB</tspan>
  </text>
  <text font-size="13.5467" style="fill: #000000;text-anchor:start;font-family:sans-serif;font-style:normal;font-weight:700" x="600" y="132.6">
    <tspan x="600" y="132.6">HAS SUBJOBS</tspan>
  </text>
  <g>
    <path style="fill: none; fill-opacity:0; stroke-width: 4; stroke: #000000" d="M 852.775,181.108 A 611.239,611.239 0 0 0 546.673,176.077"/>
    <polygon style="fill: #000000" points="539.39,177.864 547.796,170.493 546.645,175.963 550.331,180.166 "/>
    <polygon style="fill: none; fill-opacity:0; stroke-width: 4; stroke: #000000" points="539.39,177.864 547.796,170.493 546.645,175.963 550.331,180.166 "/>
  </g>
  <g>
    <line style="fill: none; fill-opacity:0; stroke-width: 4; stroke-dasharray: 8; stroke: #000000" x1="522.161" y1="350.636" x2="620" y2="540"/>
    <polygon style="fill: #000000" points="518.719,343.973 527.751,350.562 522.161,350.636 518.867,355.153 "/>
    <polygon style="fill: none; fill-opacity:0; stroke-width: 4; stroke: #000000" points="518.719,343.973 527.751,350.562 522.161,350.636 518.867,355.153 "/>
  </g>
  <g>
    <line style="fill: none; fill-opacity:0; stroke-width: 4; stroke-dasharray: 8; stroke: #000000" x1="651.516" y1="220.991" x2="518.994" y2="293.276"/>
    <polygon style="fill: #000000" points="512.41,296.867 518.795,287.689 518.994,293.276 523.583,296.468 "/>
    <polygon style="fill: none; fill-opacity:0; stroke-width: 4; stroke: #000000" points="512.41,296.867 518.795,287.689 518.994,293.276 523.583,296.468 "/>
  </g>
  <g>
    <line style="fill: none; fill-opacity:0; stroke-width: 4; stroke: #000000" x1="690" y1="298.998" x2="690" y2="231.972"/>
    <polygon style="fill: #000000" points="690,224.472 695,234.472 690,231.972 685,234.472 "/>
    <polygon style="fill: none; fill-opacity:0; stroke-width: 4; stroke: #000000" points="690,224.472 695,234.472 690,231.972 685,234.472 "/>
  </g>
  <g>
    <line style="fill: none; fill-opacity:0; stroke-width: 4; stroke: #000000" x1="871.516" y1="460.991" x2="738.994" y2="533.276"/>
    <polygon style="fill: #000000" points="732.41,536.867 738.795,527.689 738.994,533.276 743.583,536.468 "/>
    <polygon style="fill: none; fill-opacity:0; stroke-width: 4; stroke: #000000" points="732.41,536.867 738.795,527.689 738.994,533.276 743.583,536.468 "/>
  </g>
</svg>
